<svg width="12em" height="5em" viewBox="0 0 107.217 37.007">
  <defs>
    <clipPath id="logoId">
      <rect fill="#fff" width="107.217" height="37.007"/>
    </clipPath>
  </defs>
  <defs>
    <filter id="f1" width="200%" height="200%">
      <feOffset result="offOut" in="SourceGraphic" dx="1" dy="1" />
      <feColorMatrix result="matrixOut" in="offOut" type="matrix" values="0.1 0 0 0 0 0 0.1 0 0 0 0 0 0.1 0 0 0 0 0 0.5 0" />
      <feGaussianBlur result="blurOut" in="matrixOut" stdDeviation="1" />
      <feBlend in="SourceGraphic" in2="blurOut" mode="normal" />
    </filter>
  </defs>
  <g transform="translate(0 0)" filter="url(#f1)">
    <g clippath="url(#logoid)" transform="translate(0 0)">
      <path fill="#fff" d="M33.036,41.88l3.027-1.748a.111.111,0,0,0,.056-.1V37.98a.668.668,0,0,0-.334-.579l-1.836-1.059-4-2.306a.665.665,0,0,0-.668,0l-2.916,1.683L23.12,37.594l-3.138,1.812a.222.222,0,0,0-.112.193v3.237a.224.224,0,0,0,.335.194l2.914-1.683,3.249-1.876L29.4,37.723a.448.448,0,0,1,.446,0l.857.5,1.947,1.123a.446.446,0,0,1,.223.387v2.056a.112.112,0,0,0,.167.1" transform="translate(-13.371 -22.843)"/>
      <path fill="#fff" d="M22.413,33.32,19.5,31.637l-2.692,1.554a1.115,1.115,0,0,1-1.115,0L3.806,26.329a1.113,1.113,0,0,1-.556-.964V11.642a1.111,1.111,0,0,1,.556-.965L13,5.37l2.692-1.555a1.118,1.118,0,0,1,1.115,0l11.884,6.862a1.111,1.111,0,0,1,.557.965v2.98a.221.221,0,0,0,.112.193l2.8,1.62a.223.223,0,0,0,.334-.193V10.085a1.667,1.667,0,0,0-.835-1.444L17.082.224a1.668,1.668,0,0,0-1.669,0L9.75,3.494.834,8.641A1.666,1.666,0,0,0,0,10.085V26.921a1.666,1.666,0,0,0,.834,1.444l14.579,8.418a1.668,1.668,0,0,0,1.669,0l5.331-3.078a.223.223,0,0,0,0-.386" transform="translate(0 0)"/>
      <path fill="#fff" d="M29.974,32.512,33,30.764a.111.111,0,0,0,.055-.1V28.612a.223.223,0,0,0-.334-.193l-2.8,1.619a.221.221,0,0,0-.111.193v2.185a.111.111,0,0,0,.166.1" transform="translate(-20.059 -19.104)"/>
      <path fill="#fff" d="M52.443,54.739,50.384,53.55l-4-2.307a.668.668,0,0,0-.667,0l-2.916,1.683L39.556,54.8,36.529,56.55a.441.441,0,0,1-.444,0l-.858-.495-1.948-1.123a.448.448,0,0,1-.222-.386V52.488a.11.11,0,0,0-.165-.1l-3.029,1.749a.11.11,0,0,0-.055.1v2.057a.668.668,0,0,0,.334.578l1.837,1.061,3.994,2.307a.673.673,0,0,0,.668,0l2.915-1.684,3.249-1.876,3.027-1.748a.438.438,0,0,1,.444,0l.857.494,5.086,2.937a.223.223,0,0,0,.334-.194V54.932a.222.222,0,0,0-.112-.194" transform="translate(-20.058 -34.423)"/>
      <path fill="#fff" d="M69.027,78.09l-5.941-3.43a.446.446,0,0,1-.223-.386V72.219a.111.111,0,0,0-.166-.1L59.669,73.87a.111.111,0,0,0-.056.1v2.056a.667.667,0,0,0,.334.579L66,80.095a.222.222,0,0,0,.224,0l2.8-1.618a.223.223,0,0,0,0-.386" transform="translate(-40.116 -48.523)"/>
      <path fill="#fff" d="M127.629,90.164v.594h-1.517q-.419,0-.574-.013a2.556,2.556,0,0,1-.369-.062,1.192,1.192,0,0,1-.824-.639,2.024,2.024,0,0,1-.2-.933,1.709,1.709,0,0,1,.474-1.358,1.754,1.754,0,0,1,1.168-.344,2.118,2.118,0,0,1,.879.17,1.236,1.236,0,0,1,.384.269,1.164,1.164,0,0,1,.24.415,2.33,2.33,0,0,1,.145.809,1.676,1.676,0,0,1-.369,1.093Zm-1.837-2.2a.781.781,0,0,0-.652.267,1.291,1.291,0,0,0-.212.811,1.8,1.8,0,0,0,.14.769.88.88,0,0,0,1.433.03,1.645,1.645,0,0,0,.149-.784,1.45,1.45,0,0,0-.18-.763.749.749,0,0,0-.679-.329" transform="translate(-83.541 -58.82)"/>
      <rect fill="#fff" width="0.709" height="3.33" transform="translate(48.451 28.609)"/>
      <path fill="#fff" d="M164.349,88.064h-1.058V87.47h2.87v.594h-1.1V90.8h-.709Z" transform="translate(-109.884 -58.862)"/>
      <path fill="#fff" d="M184.093,90.8l1.378-3.33h.813l1.378,3.33h-.829l-.324-.769h-1.263l-.324.769Zm1.787-2.526-.474,1.163h.948Z" transform="translate(-123.882 -58.861)"/>
      <path fill="#fff" d="M208.687,88.359V90.8h-.679V87.47h.908l1.323,2.481V87.47h.674V90.8h-.868Z" transform="translate(-139.976 -58.861)"/>
      <path fill="#fff" d="M250.486,88.064h-1.058V87.47h2.87v.594h-1.1V90.8h-.709Z" transform="translate(-167.848 -58.862)"/>
      <path fill="#fff" d="M273.348,87.47v.594h-.924a2,2,0,0,0-.524.05.537.537,0,0,0-.275.195.6.6,0,0,0-.1.2,2.082,2.082,0,0,0-.047.34h1.872v.594h-1.872a.82.82,0,0,0,.254.6,1.212,1.212,0,0,0,.729.167h.889V90.8h-.924a4.289,4.289,0,0,1-.659-.045,1.132,1.132,0,0,1-.714-.394,1.891,1.891,0,0,1-.379-1.243,1.734,1.734,0,0,1,.534-1.353,1.067,1.067,0,0,1,.392-.23,1.925,1.925,0,0,1,.557-.065Z" transform="translate(-182.145 -58.861)"/>
      <path fill="#fff" d="M294.628,90.205V90.8h-1.163a2.751,2.751,0,0,1-.5-.035,1.154,1.154,0,0,1-.874-.684,2.3,2.3,0,0,1-.17-.938,2.044,2.044,0,0,1,.26-1.088,1.121,1.121,0,0,1,.507-.444,2.029,2.029,0,0,1,.816-.14h1.128v.594h-1.049a.869.869,0,0,0-.694.255,1.171,1.171,0,0,0-.185.759,1.229,1.229,0,0,0,.285.968.993.993,0,0,0,.624.16Z" transform="translate(-196.44 -58.861)"/>
      <path fill="#fff" d="M316.319,87.47V90.8h-.7V89.421h-1.288V90.8h-.709V87.47h.709v1.358h1.288V87.47Z" transform="translate(-211.044 -58.861)"/>
      <path fill="#fff" d="M176.039,41.314a.629.629,0,0,0,.185-.445V35.99a.526.526,0,0,0-.525-.527h-2.5a.15.15,0,0,1-.131-.224l1.454-2.517a.543.543,0,0,0,.05-.122h1.337a.315.315,0,0,0,.315-.315v-1h-2.8c-.758,0-1.47-.028-2.079-.077V32.6h1.542a.059.059,0,0,1,.059.058.473.473,0,0,1-.063.231l-1.93,3.343-.006.011c-.162.279-.323.534-.471.749l1.186.685.338-.585v6.623h1.258a.151.151,0,0,0,.109-.047.164.164,0,0,0,.045-.113V42.76a.308.308,0,0,1,.307-.307h.924a.629.629,0,0,0,.446-.184l.944-.944Zm-1.141-.865a.312.312,0,0,1-.093.222l-.361.362a.316.316,0,0,1-.223.092h-.5a.307.307,0,0,1-.307-.307V37.1a.308.308,0,0,1,.307-.308h.865a.315.315,0,0,1,.315.315Z" transform="translate(-114.717 -21)"/>
      <path fill="#fff" d="M188.934,45.674V39.442a.308.308,0,0,1,.308-.307H196.7a.315.315,0,0,0,.315-.315V37.808h-7.77a.308.308,0,0,1-.308-.308v-.161h-1.326v.469h-.878v1.012a.316.316,0,0,0,.316.315h.562v6.076a1.051,1.051,0,0,1-.308.743L186.252,47l.938.938,1.375-1.375a1.26,1.26,0,0,0,.369-.891" transform="translate(-125.335 -25.127)"/>
      <path fill="#fff" d="M197.627,47.425v3.755h.589a.737.737,0,0,0,.737-.737V47.11h-1.012a.314.314,0,0,0-.315.315" transform="translate(-132.99 -31.702)"/>
      <path fill="#fff" d="M211.276,47.11v3.332a.738.738,0,0,0,.737.738h.589V47.425a.315.315,0,0,0-.315-.315Z" transform="translate(-142.174 -31.702)"/>
      <path fill="#fff" d="M190.683,29.637h8.728v-2.58h-1.326V28a.308.308,0,0,1-.308.307h-1.817a.308.308,0,0,1-.308-.307V26.46h-1.326V28a.308.308,0,0,1-.308.307H192a.308.308,0,0,1-.307-.307v-.946h-1.327v2.265a.315.315,0,0,0,.315.315" transform="translate(-128.105 -17.806)"/>
      <path fill="#fff" d="M197.614,44.611h-1.327V48.3a5.858,5.858,0,0,1-.044.792,3.1,3.1,0,0,1-1.877,2.353l-.242.1c-.672.274-1.313.509-1.874.689l.03.072.478,1.158,2.11-.871.259-.107a4.019,4.019,0,0,0,2.487-3.715Z" transform="translate(-129.371 -30.02)"/>
      <path fill="#fff" d="M209.6,64.238l-.26-.145-.372-.132-1.156-.547a.1.1,0,0,0-.14.053,5.257,5.257,0,0,1-.5.9.1.1,0,0,0,.042.154l.827.391.562.265.148.061,2.11.871.478-1.158.03-.072c-.531-.17-1.132-.388-1.764-.644" transform="translate(-139.4 -42.667)"/>
      <path fill="#fff" d="M158.19,57.325c-.546-.259-1.167-.585-1.815-.96l-.892-.515a.1.1,0,0,0-.156.09v1.532l2.083,1.2.741-1.285Z" transform="translate(-104.525 -37.574)"/>
      <path fill="#fff" d="M130.947,31.676c-.565.046-1.221.072-1.918.076h-3.867a1.691,1.691,0,0,0-.636.172.17.17,0,0,0-.029.014.6.6,0,0,1-.067.029.375.375,0,0,1-.072.022.339.339,0,0,1-.074.013.659.659,0,0,1-.075.006h-.72a.659.659,0,0,1-.075-.006.458.458,0,0,1-.127-.029.309.309,0,0,1-.048-.018.223.223,0,0,1-.039-.016,1.769,1.769,0,0,0-.662-.186h-3.867c-.7,0-1.352-.029-1.917-.076v1.388h2.461a.317.317,0,0,1,.316.314v1.853a1.044,1.044,0,0,0,.521.9l1.545.891.586.339s0,0,0,0a.123.123,0,0,1,0,.212l-.586.338-3.867,2.232c-.622.357-1.217.67-1.743.919l.777,1.351,6.733-3.886.017-.009.125-.071a.425.425,0,0,1,.433,0l.147.085,2.32,1.34a.309.309,0,0,1,.156.27v2.623c0,.752-.029,1.453-.077,2.056h1.636c-.048-.6-.077-1.3-.077-2.056v-3.06a1.038,1.038,0,0,0-.519-.9l-1.544-.892-.588-.34a.125.125,0,0,1,0-.217l.588-.339,1.542-.891a1.042,1.042,0,0,0,.519-.9v-1.85a.317.317,0,0,1,.316-.317h2.458Zm-4.413,3.389-2.328,1.345h0l-.135.079s0,0-.005,0a.422.422,0,0,1-.424,0l-.139-.079-2.332-1.348a.312.312,0,0,1-.154-.269V33.687a.63.63,0,0,1,.63-.623h4.417a.63.63,0,0,1,.629.63v1.1a.316.316,0,0,1-.156.271" transform="translate(-78.05 -21.316)"/>
      <path fill="#fff" d="M128.732,58.68l-1.312.757v1.792a.524.524,0,0,1-.07.26l-.533.922,1.285.742.286-.5.376-.65a1.04,1.04,0,0,0,.139-.52V58.778a.114.114,0,0,0-.171-.1" transform="translate(-85.34 -39.477)"/>
      <path fill="#fff" d="M126.722,68.329l.032.018.5-.861c-.182.314-.364.6-.53.843" transform="translate(-85.275 -45.414)"/>
      <path fill="#fff" d="M138.312,26.725h.387a.548.548,0,0,0,.548-.548v-1.46h-1.484v1.46a.549.549,0,0,0,.549.548" transform="translate(-92.705 -16.632)"/>
      <path fill="#fff" d="M257.961,36.646h-1.319V25.883h-1.479V36.342a.3.3,0,0,1-.3.3h-3.947l.041,1.312h4.211v.412c0,.75-.028,1.956-.077,2.56h1.632c-.049-.6-.077-1.81-.077-2.56v-.412h1.319a.313.313,0,0,0,.312-.312v-.687a.312.312,0,0,0-.312-.312" transform="translate(-168.846 -17.418)"/>
      <path fill="#fff" d="M229.563,47.773H228.37v5.056a.451.451,0,0,1-.061.227l-.034.06,0-.007c-.159.275-.317.527-.463.738l1.151.665.251-.434.328-.568a.91.91,0,0,0,.122-.454V47.877a.1.1,0,0,0-.1-.1" transform="translate(-153.304 -32.148)"/>
      <path fill="#fff" d="M257.165,44.859h-.387a.547.547,0,0,0-.548.548v2.5a.1.1,0,0,0,.1.1h1.274a.1.1,0,0,0,.1-.1v-2.5a.548.548,0,0,0-.548-.548" transform="translate(-172.426 -30.187)"/>
      <path fill="#fff" d="M256.753,33.832h.387a.547.547,0,0,0,.548-.548l.015-2.495H256.22l-.015,2.495a.548.548,0,0,0,.548.548" transform="translate(-172.409 -20.719)"/>
      <path fill="#fff" d="M246.074,47.773h-1.208a.1.1,0,0,0-.1.1V54.2h1.389c-.049-.6-.077-1.306-.077-2.055Z" transform="translate(-164.708 -32.148)"/>
      <path fill="#fff" d="M232.024,31.541v-2.26c.7-.038,1.4-.083,2.105-.144l.308-.027-.113-1.306-.7.061q-2.245.195-4.5.195h-1.1v1.312h.7c.635,0,1.27-.013,1.9-.032v2.2H229.6c-.75,0-1.453-.028-2.056-.077v1.389h2.784a.3.3,0,0,1,.3.3v7.009c0,.75-.028,1.453-.077,2.056H232.1c-.048-.6-.077-1.306-.077-2.056V33.155a.3.3,0,0,1,.3-.3h2.212a.311.311,0,0,0,.312-.312V31.464c-.6.049-1.04.077-1.79.077Z" transform="translate(-153.119 -18.71)"/>
      <path fill="#fff" d="M284.74,25.882h-1.561v3.679h-.23c-.75,0-1.453-.028-2.056-.077v1.388h1.982a.3.3,0,0,1,.3.3v4.076l-1.224,1.225c-.507.5-1,.96-1.443,1.335l1.054,1.056,1.612-1.613v3.91h.522a1.017,1.017,0,0,0,1.039-.994V35.693l1.358-1.359a.624.624,0,0,0,0-.882l-.56-.56-.8.8V31.177a.3.3,0,0,1,.3-.3h1.12a.519.519,0,0,0,.52-.519v-.792H284.74Z" transform="translate(-188.766 -17.417)"/>
      <path fill="#fff" d="M303.454,29.392a.523.523,0,0,0,.523.524h.435a.524.524,0,0,0,.524-.524v-.906h3.427V27.1c-.6.049-1.307.077-2.057.077h-1.37v-1.29h-1.483v1.29h-1.372c-.75,0-1.453-.028-2.057-.077v1.389h3.429Z" transform="translate(-201.896 -17.418)"/>
      <path fill="#fff" d="M301.91,45.743l-.153.15-3.2,3.207a1.066,1.066,0,0,0-.307.713H300l2.679-2.688.254-.256a.215.215,0,0,1,.3,0l.256.256,2.681,2.688h1.746c0-.006,0-.013,0-.019a1.046,1.046,0,0,0-.076-.348,1,1,0,0,0-.229-.345l-3.194-3.207-.153-.153a.15.15,0,0,1-.02-.185.241.241,0,0,1,.02-.025l.153-.151,2-2.013a1.056,1.056,0,0,0,.313-.752V40.034h0v-.77a.533.533,0,0,0-.532-.533h-1.955a1.824,1.824,0,0,0-.682.189.654.654,0,0,1-.3.071h-.735a.66.66,0,0,1-.3-.071,1.814,1.814,0,0,0-.682-.189h-2.485v1.24a.106.106,0,0,0,.106.107H304.9a.312.312,0,0,1,.311.309v1.818a.551.551,0,0,1-.155.38L303.5,44.149l-.253.257-.01.008a.218.218,0,0,1-.294,0l0,0-.254-.257h0l-1.558-1.566a.521.521,0,0,1-.156-.377V40.846a.107.107,0,0,0-.106-.106h-1.416v1.877a1.058,1.058,0,0,0,.311.752l2.005,2.013.153.151,0,0a.151.151,0,0,1,0,.2.034.034,0,0,1-.008.01" transform="translate(-200.704 -26.063)"/>
    </g>
  </g>
</svg>
