<svg width="2.2678em" height="2.2841em" viewBox="0 0 22.678 22.841">
<g transform="translate(-313.64 -27.68)">
<path fill="currentColor" d="M324.979,40.949A1.849,1.849,0,1,0,323.13,39.1a1.849,1.849,0,0,0,1.849,1.849"/>
<path fill="currentColor" d="M324.979,50.521a1.848,1.848,0,1,0-1.849-1.849,1.849,1.849,0,0,0,1.849,1.849"/>
<path fill="currentColor" d="M324.979,31.377a1.849,1.849,0,1,0-1.849-1.849,1.849,1.849,0,0,0,1.849,1.849"/>
<path fill="currentColor" d="M315.489,40.949A1.849,1.849,0,1,0,313.64,39.1a1.849,1.849,0,0,0,1.849,1.849"/>
<path fill="currentColor" d="M315.489,50.521a1.848,1.848,0,1,0-1.849-1.849,1.849,1.849,0,0,0,1.849,1.849"/>
<path fill="currentColor" d="M315.489,31.377a1.849,1.849,0,1,0-1.849-1.849,1.849,1.849,0,0,0,1.849,1.849"/>
<path fill="currentColor" d="M334.469,40.949A1.849,1.849,0,1,0,332.62,39.1a1.849,1.849,0,0,0,1.849,1.849"/>
<path fill="currentColor" d="M334.469,50.521a1.848,1.848,0,1,0-1.849-1.849,1.849,1.849,0,0,0,1.849,1.849"/>
<path fill="currentColor" d="M334.469,31.377a1.849,1.849,0,1,0-1.849-1.849,1.849,1.849,0,0,0,1.849,1.849"/></g></svg>