<svg xmlns="http://www.w3.org/2000/svg" width="5.7598em" height="5.712em" viewBox="0 0 58.243 57.758" class="video">
  <defs>
    <style>
    .a{fill:none;stroke:#51a8de;stroke-width:2px;}
    .b{fill:#51a8de;}
    </style>
  </defs>
  <g transform="translate(-1636.018 -608.969)">
    <g transform="translate(1693.261 637.848)">
      <path class="a" d="M0,0A28,28,0,0,1-28.121,27.879,28,28,0,0,1-56.243,0,28,28,0,0,1-28.121-27.879,28,28,0,0,1,0,0Z"/>
    </g>
    <g transform="translate(1680.442 626.69)">
      <path class="b" d="M0,0C-.249-.488-1-2.2-2.737-1.953s-2.737.488-5.972,4.15a81.409,81.409,0,0,0-6.574,9.047A81.846,81.846,0,0,0-21.9,2.134c-3.235-3.662-4.23-3.906-5.972-4.15S-30.357-.552-30.606-.063s-1.244,5.615.5,12.939,3.732,10.742,4.23,11.474a2.38,2.38,0,0,0,3.732.733c1.865-1.372,5.913-7.03,6.827-8.743.84,1.629,4.969,7.416,6.859,8.806a2.38,2.38,0,0,0,3.732-.732c.5-.733,2.489-4.151,4.23-11.475S.249.488,0,0M-23.906,23.862c-1.244-.244-3.732-8.3-4.727-13.916s-.249-9.765.5-10.253,2.986,1.22,5.724,4.638a82.065,82.065,0,0,1,5.971,9.277c-1,3.418-6.22,10.5-7.465,10.254M-1.973,10.01C-2.968,15.625-5.456,23.681-6.7,23.925s-6.47-6.835-7.465-10.253A82.109,82.109,0,0,1-8.193,4.394C-5.456.977-3.217-.732-2.47-.244s1.493,4.638.5,10.254"/>
    </g>
  </g>
</svg>
