<svg width="5.7598em" height="5.712em" viewBox="0 0 57.598 57.12"><defs><style>.a{fill:none;stroke:#51a8de;stroke-miterlimit:10;stroke-width:2px;}.b{fill:#51a8de;}</style></defs><g transform="translate(-1618.063 -605.494)"><path class="a" d="M1646.838,661.614A27.56,27.56,0,1,1,1674.66,634.2,27.7,27.7,0,0,1,1646.838,661.614Z"/><path class="b" d="M1639.188,626.586a1.364,1.364,0,0,0-1.139-1.45,1.986,1.986,0,0,0-1.528.356,1.28,1.28,0,0,0-.306,1.894,1.84,1.84,0,0,0,1.172.642,1.433,1.433,0,0,0,1.8-1.442m8.2-.013a1.339,1.339,0,0,0-1.057-1.415,1.864,1.864,0,0,0-1.7.4,1.276,1.276,0,0,0-.148,1.911,1.938,1.938,0,0,0,1.111.561,1.429,1.429,0,0,0,1.791-1.458m5.911,1.717c-.2,0-.357.01-.518,0a10.233,10.233,0,0,0-4.849.848,9.408,9.408,0,0,0-4.556,4.036,8.5,8.5,0,0,0-1.062,5.406c.053.423.163.837.252,1.282a2.188,2.188,0,0,1-.255.039,11.977,11.977,0,0,1-2.88-.167c-.6-.112-1.2-.242-1.8-.343a.776.776,0,0,0-.44.066c-1.234.607-2.461,1.227-3.691,1.843a.584.584,0,0,1-.118.017c.05-.167.089-.314.138-.459.317-.942.64-1.881.946-2.827.021-.067-.064-.2-.133-.257-.665-.584-1.383-1.117-2-1.747a8.407,8.407,0,0,1-1.36-10.228,10.307,10.307,0,0,1,3.9-3.841,13.669,13.669,0,0,1,15.158,1.211,9.275,9.275,0,0,1,3.144,4.643c.043.152.084.305.131.479"/><path class="b" d="M1657.229,636.918a1.623,1.623,0,0,0,.962-.311,1.016,1.016,0,0,0,.168-1.58,1.5,1.5,0,0,0-.849-.439,1.194,1.194,0,0,0-1.247.479.985.985,0,0,0-.137,1.133,1.249,1.249,0,0,0,1.1.718m-6.444,0a1.564,1.564,0,0,0,1.036-.37.96.96,0,0,0,.312-1.191,1.34,1.34,0,0,0-1.081-.77,1.183,1.183,0,0,0-1.229.468.993.993,0,0,0-.157,1.131,1.234,1.234,0,0,0,1.119.732m9.869,10.977-1.38-.749c-.53-.287-1.055-.582-1.59-.856a.656.656,0,0,0-.39-.046c-.818.153-1.627.36-2.45.477a9.033,9.033,0,0,1-2.686-.087,10.724,10.724,0,0,1-4.409-1.7,8.443,8.443,0,0,1-3.142-3.729,7.052,7.052,0,0,1-.4-4.4,8.209,8.209,0,0,1,3.926-5.255,10.807,10.807,0,0,1,4.7-1.536,10.956,10.956,0,0,1,5.051.657,9.694,9.694,0,0,1,4.724,3.621,7.124,7.124,0,0,1,1.293,4.131,6.43,6.43,0,0,1-.978,3.289,11.2,11.2,0,0,1-2.906,3.153.33.33,0,0,0-.143.427c.243.754.47,1.514.7,2.273.028.089.044.181.081.333"/></g></svg>
