<svg width="5.7599em" height="5.712em" viewBox="0 0 57.599 57.12"><defs><style>.a{fill:none;stroke:#51a8de;stroke-miterlimit:10;stroke-width:2px;}.b{fill:#51a8de;}</style></defs><g transform="translate(-1702.888 -605.493)"><path class="a" d="M1759.487,634.053a27.8,27.8,0,1,1-27.8-27.56A27.68,27.68,0,0,1,1759.487,634.053Z"/><path class="b" d="M1739.471,619.514a9.211,9.211,0,0,1,9.2,6.92,8.845,8.845,0,0,1,.2,3.037,9.268,9.268,0,0,1-.388,1.849,1.322,1.322,0,0,1-2.549-.1,1.3,1.3,0,0,1,.036-.7,6.357,6.357,0,0,0,.3-1.691,6.245,6.245,0,0,0-1.252-4.076,6.366,6.366,0,0,0-4.1-2.529,6.282,6.282,0,0,0-2.459.039,1.327,1.327,0,0,1-1.551-.847,1.3,1.3,0,0,1,.919-1.688,7.789,7.789,0,0,1,1.635-.214"/><path class="b" d="M1727.374,645.252c.494-.027.99-.042,1.483-.087a15.023,15.023,0,0,0,3.26-.652,12.265,12.265,0,0,0,3.681-1.851,7.752,7.752,0,0,0,2.04-2.185,4.863,4.863,0,0,0,.76-2.863,4.513,4.513,0,0,0-.251-1.243,5.457,5.457,0,0,0-1.627-2.3,8.7,8.7,0,0,0-2.451-1.477,13.487,13.487,0,0,0-4.979-.949,15.739,15.739,0,0,0-1.9.1,15.15,15.15,0,0,0-3.366.755,11.739,11.739,0,0,0-3.7,2.04,7.393,7.393,0,0,0-1.694,1.96,4.823,4.823,0,0,0-.7,2.908,4.5,4.5,0,0,0,.355,1.391,5.7,5.7,0,0,0,1.672,2.14,9.239,9.239,0,0,0,2.821,1.545,14.239,14.239,0,0,0,4.595.765m1.327,1.941a21.654,21.654,0,0,1-6.946-1.181,15.408,15.408,0,0,1-3.449-1.675,9.752,9.752,0,0,1-2.561-2.374,6.581,6.581,0,0,1-1.212-2.831,6.743,6.743,0,0,1-.026-1.919,11.152,11.152,0,0,1,1.5-4.166,19.6,19.6,0,0,1,2.4-3.276,24.766,24.766,0,0,1,4.051-3.691,17.079,17.079,0,0,1,3.479-1.984,9.159,9.159,0,0,1,1.989-.593,4.476,4.476,0,0,1,1.819.015,2.274,2.274,0,0,1,1.8,1.838,4.054,4.054,0,0,1,.012,1.62c-.068.382-.173.755-.262,1.133a2.252,2.252,0,0,0-.052.226.256.256,0,0,0,.265.31,1.113,1.113,0,0,0,.474-.083c.342-.128.68-.263,1.023-.387a13.145,13.145,0,0,1,2.77-.7,6.573,6.573,0,0,1,2.336.052,3.035,3.035,0,0,1,1.254.574,2.249,2.249,0,0,1,.831,1.5,4.209,4.209,0,0,1-.237,1.893c-.055.173-.124.341-.184.512a1.473,1.473,0,0,0-.059.208.377.377,0,0,0,.229.472,2.206,2.206,0,0,0,.335.125,7.627,7.627,0,0,1,2.4,1.184,4.59,4.59,0,0,1,1.607,2.08,4.192,4.192,0,0,1,.217,1.926,6.393,6.393,0,0,1-1.127,2.879,11.327,11.327,0,0,1-2.7,2.765,17.011,17.011,0,0,1-4.9,2.489,20.691,20.691,0,0,1-3.483.814,24.546,24.546,0,0,1-3.587.245"/><path class="b" d="M1739.742,624.159a4.439,4.439,0,0,1,4.412,3.543,4.246,4.246,0,0,1-.135,2.221,1.137,1.137,0,0,1-2.185-.107,1.19,1.19,0,0,1,.025-.6,3.369,3.369,0,0,0,.093-.455,2.146,2.146,0,0,0-1.816-2.325,2.5,2.5,0,0,0-.809.022,1.124,1.124,0,0,1-.476-2.2,4.4,4.4,0,0,1,.495-.082c.155-.017.312-.017.4-.022"/><path class="b" d="M1727.926,638.2a.56.56,0,0,0,.351.6.815.815,0,0,0,1.029-.508.538.538,0,0,0-.236-.645.718.718,0,0,0-.745.013.7.7,0,0,0-.4.543m-2.359,3.549c.068,0,.136,0,.2,0a1.289,1.289,0,0,0,.186-.028,2.1,2.1,0,0,0,1.618-1.279,1.46,1.46,0,0,0-1.008-2.029,1.95,1.95,0,0,0-1.1.021,2.062,2.062,0,0,0-1.461,1.371,1.444,1.444,0,0,0,.914,1.844,1.593,1.593,0,0,0,.645.1m-3.5-2.222a4.509,4.509,0,0,1,1.086-2.893,6.141,6.141,0,0,1,3.309-2.058,6.051,6.051,0,0,1,1.908-.183,5.262,5.262,0,0,1,3.218,1.25,3.982,3.982,0,0,1,1.385,2.551,4.163,4.163,0,0,1-.389,2.325,5.542,5.542,0,0,1-2.5,2.57,6.276,6.276,0,0,1-2.454.734,5.608,5.608,0,0,1-3.62-.83,4.082,4.082,0,0,1-1.857-2.6,3.423,3.423,0,0,1-.089-.862"/></g></svg>
