<svg width="25.673em" height="8.8774em" viewBox="0 0 256.73 88.774"><g transform="translate(-136.591 -113.04)"><path fill="currentColor" d="M354.978,181.667v1.424h-2.211a4.772,4.772,0,0,0-1.256.12,1.271,1.271,0,0,0-.657.468,1.432,1.432,0,0,0-.244.479,5.062,5.062,0,0,0-.114.815h4.482V186.4H350.5a1.974,1.974,0,0,0,.609,1.432,2.909,2.909,0,0,0,1.745.4h2.128v1.426h-2.211a10.2,10.2,0,0,1-1.578-.108,2.708,2.708,0,0,1-1.709-.945,4.545,4.545,0,0,1-.909-2.983,4.161,4.161,0,0,1,1.279-3.245,2.561,2.561,0,0,1,.939-.551,4.586,4.586,0,0,1,1.332-.155Z"/><path fill="currentColor" d="M371.7,188.228v1.426h-2.786a6.747,6.747,0,0,1-1.207-.083,2.77,2.77,0,0,1-2.092-1.641,5.521,5.521,0,0,1-.406-2.251,4.906,4.906,0,0,1,.622-2.611A2.674,2.674,0,0,1,367.045,182a4.852,4.852,0,0,1,1.953-.336h2.7v1.424h-2.51a2.08,2.08,0,0,0-1.662.611,2.816,2.816,0,0,0-.443,1.82,2.956,2.956,0,0,0,.682,2.324,2.381,2.381,0,0,0,1.494.382Z"/><path fill="currentColor" d="M183.678,158.705l7.247-4.192a.263.263,0,0,0,.133-.23V149.35a1.6,1.6,0,0,0-.8-1.388l-4.4-2.542-9.568-5.532a1.591,1.591,0,0,0-1.6,0l-6.983,4.038-7.78,4.5-7.515,4.345a.537.537,0,0,0-.268.463l0,7.765a.536.536,0,0,0,.8.465l6.977-4.036,7.78-4.5,7.248-4.193a1.065,1.065,0,0,1,1.067,0l2.052,1.188,4.663,2.7a1.07,1.07,0,0,1,.534.926v4.932a.265.265,0,0,0,.4.23"/><path fill="currentColor" d="M190.258,192.968l-6.981-4.037-6.446,3.728a2.668,2.668,0,0,1-2.669,0L145.705,176.2a2.667,2.667,0,0,1-1.332-2.312v-32.92a2.667,2.667,0,0,1,1.332-2.313l22.01-12.732,6.447-3.729a2.668,2.668,0,0,1,2.669,0l28.456,16.461a2.665,2.665,0,0,1,1.334,2.313v7.15a.533.533,0,0,0,.267.463l6.717,3.886a.534.534,0,0,0,.8-.463V137.232a4,4,0,0,0-2-3.463l-34.911-20.192a3.984,3.984,0,0,0-4,0l-13.563,7.846-21.347,12.346a4,4,0,0,0-2,3.463v40.387a4,4,0,0,0,2,3.465l34.91,20.193a3.984,3.984,0,0,0,4,0l12.764-7.383a.535.535,0,0,0,0-.926"/><path fill="currentColor" d="M160.334,145.2l7.25-4.192a.268.268,0,0,0,.132-.231V135.85a.533.533,0,0,0-.8-.464L160.2,139.27a.533.533,0,0,0-.266.462v5.242a.266.266,0,0,0,.4.23"/><path fill="currentColor" d="M214.136,161.773l-4.929-2.851-9.568-5.534a1.6,1.6,0,0,0-1.6,0l-6.983,4.038-7.78,4.5-7.249,4.194a1.056,1.056,0,0,1-1.062,0l-2.054-1.187-4.666-2.7a1.073,1.073,0,0,1-.531-.926v-4.938a.265.265,0,0,0-.4-.229l-7.252,4.2a.266.266,0,0,0-.132.23V165.5a1.6,1.6,0,0,0,.8,1.387l4.4,2.544,9.565,5.535a1.607,1.607,0,0,0,1.6,0l6.981-4.039,7.78-4.5,7.249-4.192a1.052,1.052,0,0,1,1.065,0l2.052,1.185,12.18,7.046a.533.533,0,0,0,.8-.464v-7.767a.534.534,0,0,0-.267-.464"/><path fill="currentColor" d="M205.818,183.966l-14.225-8.227a1.072,1.072,0,0,1-.535-.927V169.88a.265.265,0,0,0-.4-.23l-7.249,4.192a.267.267,0,0,0-.133.23V179a1.6,1.6,0,0,0,.8,1.388l14.494,8.382a.528.528,0,0,0,.535,0l6.712-3.881a.535.535,0,0,0,0-.927"/><path fill="currentColor" d="M237.761,182.96a1.871,1.871,0,0,0-1.56.641,3.1,3.1,0,0,0-.508,1.946,4.328,4.328,0,0,0,.335,1.843,2.105,2.105,0,0,0,3.43.072,3.95,3.95,0,0,0,.359-1.88,3.5,3.5,0,0,0-.43-1.832,1.8,1.8,0,0,0-1.626-.79m4.4,5.268v1.426h-3.632c-.671,0-1.128-.011-1.376-.031a6.023,6.023,0,0,1-.884-.149,2.855,2.855,0,0,1-1.972-1.533,4.859,4.859,0,0,1-.478-2.239,4.106,4.106,0,0,1,1.135-3.257,4.2,4.2,0,0,1,2.8-.826,5.056,5.056,0,0,1,2.1.407,2.968,2.968,0,0,1,.92.647,2.8,2.8,0,0,1,.574.994,5.6,5.6,0,0,1,.346,1.94,4.027,4.027,0,0,1-.884,2.621Z"/><rect fill="currentColor" width="1.697" height="7.987" transform="translate(252.606 181.667)"/><path fill="currentColor" d="M267.008,183.091h-2.534v-1.424h6.872v1.424h-2.641v6.563h-1.7Z"/><path fill="currentColor" d="M285.044,183.6l-1.135,2.79h2.271Zm-4.278,6.059,3.3-7.987h1.948l3.3,7.987h-1.984l-.777-1.845h-3.024l-.777,1.845Z"/><path fill="currentColor" d="M301.12,183.8v5.855H299.5v-7.986h2.175l3.167,5.951v-5.951h1.614v7.986h-2.08Z"/><path fill="currentColor" d="M334.468,183.091h-2.534v-1.424h6.872v1.424h-2.642v6.563h-1.7Z"/><path fill="currentColor" d="M388.672,181.667v7.988h-1.685v-3.306H383.9v3.306h-1.7v-7.988h1.7v3.257h3.084v-3.257Z"/><path fill="currentColor" d="M280.692,159.7a.746.746,0,0,1-.222.533l-.863.868a.761.761,0,0,1-.534.221h-1.208a.737.737,0,0,1-.736-.738v-8.923a.739.739,0,0,1,.736-.739h2.071a.755.755,0,0,1,.756.755Zm2.733,2.074a1.5,1.5,0,0,0,.443-1.067V149a1.261,1.261,0,0,0-1.259-1.263H276.62a.359.359,0,0,1-.313-.536l3.483-6.039a1.428,1.428,0,0,0,.121-.292h3.2a.755.755,0,0,0,.755-.757v-2.4h-6.706c-1.816,0-3.52-.067-4.98-.185v3.345h3.691a.141.141,0,0,1,.142.138,1.143,1.143,0,0,1-.151.554l-4.622,8.02-.015.026c-.387.669-.773,1.281-1.128,1.8l2.84,1.642.809-1.4v15.888h3.011a.361.361,0,0,0,.261-.112.4.4,0,0,0,.109-.272v-1.907a.737.737,0,0,1,.736-.737h2.211a1.5,1.5,0,0,0,1.067-.442l2.26-2.264Z"/><path fill="currentColor" d="M288.879,162.328V147.38a.739.739,0,0,1,.737-.738h17.851a.755.755,0,0,0,.755-.755v-2.428H289.616a.738.738,0,0,1-.737-.739v-.385H285.7v1.124h-2.1v2.427a.757.757,0,0,0,.757.756H285.7v14.576a2.524,2.524,0,0,1-.738,1.784l-2.509,2.512,2.247,2.25,3.291-3.3a3.027,3.027,0,0,0,.885-2.138"/><path fill="currentColor" d="M291.365,150.756v9.007h1.41a1.767,1.767,0,0,0,1.766-1.768V150h-2.423a.753.753,0,0,0-.753.755"/><path fill="currentColor" d="M302.054,150v7.993a1.768,1.768,0,0,0,1.766,1.77h1.41v-9.006a.755.755,0,0,0-.755-.757Z"/><path fill="currentColor" d="M286.435,141.422h20.9v-6.188h-3.176V137.5a.738.738,0,0,1-.737.738h-4.35a.739.739,0,0,1-.738-.738v-3.7h-3.176v3.7a.737.737,0,0,1-.737.738h-4.827a.738.738,0,0,1-.737-.738v-2.267h-3.177v5.432a.756.756,0,0,0,.756.756"/><path fill="currentColor" d="M300,148.04H296.82v8.854a14.144,14.144,0,0,1-.106,1.9,7.441,7.441,0,0,1-4.494,5.643l-.579.241c-1.61.657-3.144,1.22-4.487,1.652l.072.172,1.144,2.778,5.052-2.089.621-.257A9.644,9.644,0,0,0,300,158.02Z"/><path fill="currentColor" d="M304.694,164.786l-.622-.347-.891-.318-2.768-1.312a.249.249,0,0,0-.336.127,12.71,12.71,0,0,1-1.206,2.164.251.251,0,0,0,.1.37l1.981.939,1.345.635.354.147,5.052,2.09,1.144-2.778.072-.172c-1.271-.409-2.709-.932-4.223-1.545"/><path fill="currentColor" d="M265.092,160.419c-1.308-.621-2.794-1.4-4.346-2.3l-2.135-1.236a.248.248,0,0,0-.373.217v3.674l4.988,2.887L265,160.578Z"/><path fill="currentColor" d="M252.685,146.021l-5.573,3.228H247.1l-.327.189c-.005,0-.005.006-.011.006a1.007,1.007,0,0,1-1.015-.006l-.333-.189-5.584-3.234a.747.747,0,0,1-.368-.644v-2.654a1.507,1.507,0,0,1,1.507-1.494h10.577a1.51,1.51,0,0,1,1.508,1.511v2.637a.757.757,0,0,1-.374.65m10.569-8.129c-1.355.11-2.923.174-4.592.181H249.4a4.01,4.01,0,0,0-1.521.415.291.291,0,0,0-.07.032,1.259,1.259,0,0,1-.161.069.919.919,0,0,1-.172.053.76.76,0,0,1-.177.03,1.636,1.636,0,0,1-.178.013H245.4a1.636,1.636,0,0,1-.179-.013,1.093,1.093,0,0,1-.306-.07.763.763,0,0,1-.114-.044.649.649,0,0,1-.1-.038,4.232,4.232,0,0,0-1.585-.447h-9.261c-1.668-.007-3.236-.071-4.591-.181v3.331h5.892a.757.757,0,0,1,.755.751v4.446a2.509,2.509,0,0,0,1.248,2.161l3.7,2.137,1.4.811c.006,0,.006.006.01.012a.3.3,0,0,1-.01.508l-1.4.811-9.26,5.355c-1.489.855-2.915,1.606-4.174,2.2l1.86,3.241,16.122-9.323.041-.022.3-.169a1.013,1.013,0,0,1,1.036,0l.351.2,5.556,3.214a.742.742,0,0,1,.374.646V164.5c0,1.8-.07,3.487-.183,4.932H256.8c-.113-1.445-.182-3.128-.182-4.932V157.16a2.489,2.489,0,0,0-1.244-2.155l-3.7-2.139-1.409-.817a.3.3,0,0,1,0-.52l1.409-.811,3.692-2.137a2.506,2.506,0,0,0,1.244-2.161v-4.438a.758.758,0,0,1,.757-.759h5.884Z"/><path fill="currentColor" d="M240.494,159.1l-3.141,1.816v4.3a1.254,1.254,0,0,1-.167.624l-1.276,2.212,3.076,1.78.685-1.191.9-1.559a2.494,2.494,0,0,0,.332-1.246v-6.5a.273.273,0,0,0-.41-.236"/><path fill="currentColor" d="M235.835,168.01l.076.045,1.192-2.067c-.436.753-.871,1.444-1.268,2.022"/><path fill="currentColor" d="M245.8,137.25h.926a1.314,1.314,0,0,0,1.313-1.316v-3.5h-3.553v3.5a1.315,1.315,0,0,0,1.314,1.316"/><path fill="currentColor" d="M349.976,159.166h-3.158V133.347h-3.542v25.089a.729.729,0,0,1-.729.73H333.1l.1,3.147h10.085v.988c0,1.8-.067,4.693-.183,6.141H347c-.117-1.448-.183-4.341-.183-6.141v-.988h3.158a.749.749,0,0,0,.747-.749v-1.65a.749.749,0,0,0-.747-.748"/><path fill="currentColor" d="M319.191,150.521h-2.856V162.65a1.079,1.079,0,0,1-.147.545l-.082.143.009-.017c-.38.66-.759,1.263-1.108,1.77l2.755,1.594.6-1.041.786-1.363a2.192,2.192,0,0,0,.291-1.091V150.771a.25.25,0,0,0-.249-.25"/><path fill="currentColor" d="M339.5,148.235h-.926a1.312,1.312,0,0,0-1.311,1.315v6.007a.248.248,0,0,0,.249.249h3.051a.25.25,0,0,0,.249-.249V149.55a1.313,1.313,0,0,0-1.312-1.315"/><path fill="currentColor" d="M338.554,144.495h.926a1.311,1.311,0,0,0,1.311-1.315l.036-5.984h-3.548l-.038,5.984a1.313,1.313,0,0,0,1.313,1.315"/><path fill="currentColor" d="M331.42,150.521h-2.892a.251.251,0,0,0-.249.25v15.165H331.6c-.117-1.447-.184-3.133-.184-4.929Z"/><path fill="currentColor" d="M325.529,143.819V138.4c1.681-.092,3.363-.2,5.04-.346l.74-.066-.27-3.133-1.684.146q-5.376.467-10.78.467h-2.627v3.148h1.679c1.521,0,3.041-.031,4.56-.078v5.283h-2.474c-1.794,0-3.478-.067-4.922-.184v3.331h6.666a.729.729,0,0,1,.728.731l0,16.814c0,1.8-.068,3.483-.183,4.93h3.708c-.116-1.447-.183-3.131-.183-4.93V147.693a.728.728,0,0,1,.728-.727h5.3a.746.746,0,0,0,.746-.747v-2.584c-1.443.117-2.489.184-4.285.184Z"/><path fill="currentColor" d="M366.4,133.346h-3.738v8.825h-.551c-1.795,0-3.479-.067-4.923-.183v3.33h4.746a.729.729,0,0,1,.728.73v9.777l-2.929,2.938c-1.214,1.209-2.4,2.3-3.455,3.2L358.8,164.5l3.859-3.869v9.381h1.25a2.438,2.438,0,0,0,2.488-2.384V156.881l3.252-3.26a1.5,1.5,0,0,0,0-2.116l-1.341-1.344-1.909,1.915v-6.028a.73.73,0,0,1,.728-.73h2.682a1.245,1.245,0,0,0,1.245-1.246v-1.9H366.4Z"/><path fill="currentColor" d="M379.769,141.764a1.254,1.254,0,0,0,1.253,1.257h1.043a1.255,1.255,0,0,0,1.254-1.257v-2.173h8.207v-3.332c-1.445.117-3.128.183-4.925.183h-3.282v-3.1h-3.55v3.1h-3.284c-1.8,0-3.48-.066-4.926-.183v3.332h8.21Z"/><path fill="currentColor" d="M378.928,160.247l-.365.361-7.657,7.691a2.563,2.563,0,0,0-.735,1.71h4.186l6.414-6.449.609-.616a.514.514,0,0,1,.727,0l.614.616,6.42,6.449h4.18a.386.386,0,0,1,0-.047,2.532,2.532,0,0,0-.182-.835,2.439,2.439,0,0,0-.55-.828l-7.649-7.691-.367-.367a.361.361,0,0,1-.047-.445.529.529,0,0,1,.047-.059l.367-.362,4.795-4.828a2.531,2.531,0,0,0,.751-1.8v-6.19h-.005v-1.848a1.277,1.277,0,0,0-1.274-1.278c-1.461,0-3.453,0-4.681,0a4.378,4.378,0,0,0-1.633.454,1.583,1.583,0,0,1-.714.171h-1.759a1.587,1.587,0,0,1-.715-.171,4.338,4.338,0,0,0-1.633-.452l-5.95,0V146.4a.254.254,0,0,0,.254.256h13.713a.748.748,0,0,1,.745.74v4.362a1.32,1.32,0,0,1-.372.911l-3.733,3.751-.606.615a.1.1,0,0,1-.024.019.521.521,0,0,1-.7-.008l-.012-.011-.609-.615h-.006l-3.733-3.757a1.255,1.255,0,0,1-.372-.9V148.5a.256.256,0,0,0-.253-.255h-3.39v4.5a2.545,2.545,0,0,0,.744,1.8l4.8,4.828.365.362.012.011a.362.362,0,0,1,.006.469.083.083,0,0,1-.018.024"/></g></svg>